# Created by Metasequoia

mtllib Express 1000_æ–±ˆõº¶ƒhƒA.mtl

v 1.500000 201.299988 -49.055168
v 1.500000 0.060000 -49.055168
v 1.500000 0.060000 0.084620
v 1.500000 201.300003 0.084620
v 1.500000 85.714279 0.084620
v 1.500000 85.717529 -49.055168
v 1.500000 97.012283 -7.616200
v 1.500000 97.012283 -40.276497
v 1.500000 182.980942 -7.616200
v 1.500000 182.980942 -40.536221
v 1.500000 71.705460 0.084620
v 1.500000 71.709999 -49.055168
v 1.500000 71.705460 -30.424999
v 1.500000 85.714279 -30.424999
v 1.500000 141.358490 0.084620
v 1.500000 8.487762 0.084620
v 1.500000 141.626358 -49.055168
v 1.500000 9.123293 -49.055168
v -1.500000 201.300003 -49.055168
v -1.500000 0.060000 -49.055168
v -1.500000 0.060000 0.084620
v -1.500000 201.300003 0.084620
v -1.500000 85.537331 0.084620
v -1.500000 85.537331 -49.055168
v -1.500000 97.012283 -7.616200
v -1.500000 97.012283 -40.276497
v -1.500000 182.980942 -7.616200
v -1.500000 182.980942 -40.536221
v -1.500000 71.705460 0.084620
v -1.500000 71.709999 -49.055168
v -1.500000 71.705460 -34.424587
v -1.500000 85.537331 -34.424587
v -1.500000 141.399994 0.084620
v -1.500000 8.487762 0.084620
v -1.500000 141.626358 -49.055168
v -1.500000 9.123293 -49.055168
v 1.500000 80.847633 -49.055168
v 1.500000 80.847633 -30.424999
v 1.500000 77.193367 -49.055168
v 1.500000 77.193367 -30.424999
v 1.500000 80.847633 -41.539562
v 1.500000 77.193359 -41.539562
v 1.500000 79.847633 -49.055168
v 1.500000 78.193367 -49.055168
v 1.500000 80.847633 -42.539562
v 1.500000 80.847633 -44.055168
v 1.500000 77.193367 -44.055168
v 1.500000 77.193359 -42.539562
v 1.500000 78.193359 -41.539562
v 1.500000 79.847633 -41.539562
v 1.500000 80.713661 -44.555168
v 1.500000 80.347633 -44.921196
v 1.500000 77.327339 -44.555168
v 1.500000 77.693367 -44.921196
v 1.500000 77.693375 -41.539562
v 1.500000 77.327332 -42.039562
v 1.500000 80.347626 -41.789562
v 1.500000 80.713661 -42.039562
v 1.500000 78.193367 -45.055000
v 1.500000 79.847633 -45.055000
v 5.500000 78.193367 -45.055000
v 5.500000 79.847633 -45.055000
v 3.431641 79.847633 -30.424587
v 5.500000 79.847633 -30.424587
v 5.500000 78.193367 -30.424587
v 3.431641 78.193367 -30.424587
v 1.500000 80.847633 -42.539562
v 1.500000 80.847633 -44.055168
v 5.500000 80.847633 -44.055168
v 5.500000 80.847633 -31.424587
v 3.431641 80.847633 -31.424587
v 3.431641 80.847626 -42.539562
v 3.431641 77.193367 -31.424587
v 5.500000 77.193367 -31.424587
v 5.500000 77.193367 -44.055168
v 1.500000 77.193367 -44.055168
v 1.500000 77.193359 -42.539562
v 3.431641 77.193398 -42.539562
v 3.431641 78.193398 -41.539562
v 1.500000 78.193359 -41.539562
v 1.500000 79.847633 -41.539562
v 3.431641 79.847626 -41.539562
v 1.500000 80.713661 -44.555168
v 5.500000 80.713661 -44.555168
v 1.500000 80.347633 -44.921196
v 5.500000 80.347633 -44.921196
v 5.500000 80.713661 -30.924587
v 3.431641 80.713661 -30.924587
v 5.500000 80.347633 -30.558559
v 3.431641 80.347633 -30.558559
v 3.431641 77.327339 -30.924587
v 5.500000 77.327339 -30.924587
v 3.431641 77.693367 -30.558559
v 5.500000 77.693367 -30.558559
v 5.500000 77.327339 -44.555168
v 1.500000 77.327339 -44.555168
v 5.500000 77.693367 -44.921196
v 1.500000 77.693367 -44.921196
v 3.431641 77.693375 -41.539562
v 1.500000 77.693375 -41.539562
v 3.431641 77.327370 -42.039562
v 1.500000 77.327332 -42.039562
v 1.500000 80.347626 -41.789562
v 3.431641 80.347626 -41.789562
v 1.500000 80.713661 -42.039562
v 3.431641 80.713654 -42.039562
v 1.500000 78.193367 -45.055000
v 1.500000 79.847633 -45.055000
# 108 vertices

vt 0.03839 0.23095
vt 0.03288 0.15992
vt 0.06870 0.15523
vt 0.06233 0.22781
vt 0.06873 0.60926
vt 0.05770 0.60985
vt 0.03177 0.61123
vt 0.03760 0.56778
vt 0.06215 0.56426
vt 0.03230 0.39380
vt 0.06872 0.38938
vt 0.06874 0.66351
vt 0.06876 0.90909
vt 0.06876 0.94483
vt 0.03095 0.94655
vt 0.03103 0.91377
vt 0.03163 0.66670
vt 0.05772 0.66446
vt 0.05771 0.62921
vt 0.05771 0.64295
vt 0.06850 0.63043
vt 0.06826 0.62913
vt 0.06802 0.62782
vt 0.06874 0.62773
vt 0.06874 0.63174
vt 0.06874 0.64239
vt 0.06803 0.64242
vt 0.06827 0.64107
vt 0.06850 0.63972
vt 0.06874 0.63838
vt 0.06670 0.62932
vt 0.06646 0.63067
vt 0.06622 0.63202
vt 0.06621 0.62807
vt 0.06693 0.62797
vt 0.06625 0.64251
vt 0.06624 0.63856
vt 0.06648 0.63987
vt 0.06672 0.64117
vt 0.06696 0.64248
vt 0.06874 0.63838
vt 0.06874 0.63174
vt 0.06874 0.62773
vt 0.06802 0.62782
vt 0.06624 0.63856
vt 0.06850 0.63972
vt 0.06802 0.62782
vt 0.06826 0.62913
vt 0.06823 0.62913
vt 0.06798 0.62783
vt 0.06850 0.63043
vt 0.06849 0.63043
vt 0.05846 0.62911
vt 0.05821 0.63040
vt 0.05819 0.63040
vt 0.05843 0.62912
vt 0.05796 0.63168
vt 0.05795 0.63169
vt 0.05771 0.63297
vt 0.05847 0.64291
vt 0.05822 0.64167
vt 0.05821 0.64167
vt 0.05847 0.64291
vt 0.05797 0.64043
vt 0.05796 0.64043
vt 0.05771 0.63919
vt 0.06798 0.64243
vt 0.06824 0.64108
vt 0.06827 0.64107
vt 0.06803 0.64242
vt 0.06849 0.63973
vt 0.06850 0.63972
vt 0.06605 0.63858
vt 0.06584 0.63991
vt 0.06648 0.63987
vt 0.06624 0.63856
vt 0.06563 0.64123
vt 0.06672 0.64117
vt 0.06542 0.64256
vt 0.06696 0.64248
vt 0.06622 0.63202
vt 0.06646 0.63067
vt 0.06555 0.63079
vt 0.06584 0.63207
vt 0.06670 0.62932
vt 0.06527 0.62951
vt 0.06693 0.62797
vt 0.06499 0.62823
vt 0.05809 0.64242
vt 0.05781 0.64106
vt 0.05781 0.63108
vt 0.05808 0.62967
vt 0.06836 0.62831
vt 0.06864 0.62974
vt 0.06874 0.63174
vt 0.06874 0.63838
vt 0.06864 0.64039
vt 0.06836 0.64187
vt 0.05781 0.64106
vt 0.05809 0.64242
vt 0.06578 0.64201
vt 0.06601 0.64056
vt 0.06567 0.63011
vt 0.06536 0.62871
vt 0.05807 0.62967
vt 0.05781 0.63108
# 106 texture vertices

vn 1.00000 0.00000 0.00000
vn 1.00000 -0.00000 -0.00000
vn 1.00000 0.00000 -0.00000
vn 1.00000 0.00000 -0.00000
vn 1.00000 0.00000 -0.00000
vn 1.00000 0.00000 -0.00000
vn 1.00000 -0.00000 -0.00000
vn -1.00000 0.00000 0.00000
vn -1.00000 0.00000 0.00000
vn -1.00000 0.00000 0.00000
vn -1.00000 0.00000 0.00000
vn -1.00000 0.00000 0.00000
vn -1.00000 0.00000 0.00000
vn -1.00000 0.00000 0.00000
vn 0.00000 1.00000 -0.00000
vn 0.00000 0.00000 1.00000
vn 0.00000 0.00000 -1.00000
vn 0.00000 -1.00000 0.00000
vn 0.00000 1.00000 0.00000
vn 0.00000 0.00302 1.00000
vn 1.00000 0.00000 0.00000
vn 1.00000 -0.00000 -0.00000
vn 1.00000 -0.00000 -0.00000
vn 1.00000 -0.00000 -0.00000
vn 1.00000 -0.00000 -0.00000
vn 0.00000 0.00000 0.00000
vn 1.00000 -0.00000 -0.00000
vn -0.00000 0.99145 -0.13052
vn 0.00000 0.86603 -0.50000
vn 0.00000 0.49986 -0.86610
vn -0.00000 0.99145 0.13052
vn 0.00000 0.86603 0.50000
vn 0.00000 0.50000 0.86603
vn 0.00000 0.13052 0.99145
vn -0.00000 -0.99145 0.13052
vn 0.00000 -0.86603 0.50000
vn 0.00000 -0.50000 0.86603
vn 0.00000 -0.13052 0.99145
vn -0.00000 -0.99145 -0.13052
vn 0.00000 -0.86603 -0.50000
vn 0.00000 -0.49986 -0.86610
vn 0.00000 0.00000 1.00000
vn 0.00000 -0.45239 0.89182
vn 0.00001 -0.90181 0.43214
vn 0.00001 -0.90182 0.43212
vn 0.00001 -0.99144 0.13053
vn 0.00001 -0.99145 0.13052
vn 0.00000 0.22976 0.97325
vn 0.00000 0.50677 0.86208
vn 0.00000 0.22974 0.97325
vn 0.00000 0.81581 0.57832
vn 0.00000 0.81579 0.57835
vn 0.00000 0.99145 0.13052
vn 0.00000 0.99144 0.13053
vn 1.00000 0.00000 0.00000
vn -1.00000 0.00000 0.00000
vn 0.00000 -0.13037 -0.99147
vn 0.00000 0.13037 -0.99147
# 58 normal vertices

g obj6
s 1
usemtl mat1
f 10/4/1 4/2/1 9/1/1
f 10/4/1 1/3/1 4/2/1
f 6/5/1 5/7/1 14/6/1
f 6/5/1 7/8/1 5/7/1
f 6/5/1 8/9/1 7/8/1
f 7/8/1 15/10/1 5/7/1
f 9/1/1 15/10/1 7/8/1
f 9/1/1 4/2/1 15/10/1
f 17/11/1 8/9/1 6/5/1
f 17/11/1 10/4/1 8/9/1
f 17/11/1 1/3/1 10/4/1
f 18/13/3 3/15/4 2/14/4
f 18/13/3 16/16/5 3/15/4
f 18/13/3 11/17/6 16/16/5
f 13/18/7 11/17/6 18/13/3
f 18/13/3 12/12/2 13/18/7
f 27/1/8 19/3/8 28/4/8
f 27/1/8 22/2/8 19/3/8
f 23/7/8 31/18/10 29/17/9
f 23/7/8 32/6/8 31/18/10
f 32/6/8 30/12/11 31/18/10
f 32/6/8 24/5/8 30/12/11
f 25/8/8 32/6/8 23/7/8
f 25/8/8 24/5/8 32/6/8
f 25/8/8 26/9/8 24/5/8
f 33/10/8 25/8/8 23/7/8
f 33/10/8 27/1/8 25/8/8
f 33/10/8 22/2/8 27/1/8
f 26/9/8 35/11/8 24/5/8
f 28/4/8 35/11/8 26/9/8
f 28/4/8 19/3/8 35/11/8
f 34/16/12 20/14/13 21/15/13
f 34/16/12 36/13/14 20/14/13
f 29/17/9 36/13/14 34/16/12
f 31/18/10 30/12/11 36/13/14
f 36/13/14 29/17/9 31/18/10
f 22/2/15 1/3/15 19/3/15
f 22/2/15 4/2/15 1/3/15
f 4/2/16 33/10/16 15/10/16
f 4/2/16 22/2/16 33/10/16
f 5/7/16 33/10/16 23/7/16
f 5/7/16 15/10/16 33/10/16
f 5/7/16 29/17/16 11/17/16
f 5/7/16 23/7/16 29/17/16
f 11/17/16 34/16/16 16/16/16
f 11/17/16 29/17/16 34/16/16
f 16/16/16 21/15/16 3/15/16
f 16/16/16 34/16/16 21/15/16
f 19/3/17 17/11/17 35/11/17
f 19/3/17 1/3/17 17/11/17
f 35/11/17 6/5/17 24/5/17
f 35/11/17 17/11/17 6/5/17
f 30/12/17 18/13/17 36/13/17
f 30/12/17 12/12/17 18/13/17
f 36/13/17 2/14/17 20/14/17
f 36/13/17 18/13/17 2/14/17
f 3/15/18 20/14/18 2/14/18
f 3/15/18 21/15/18 20/14/18
f 25/8/19 8/9/19 26/9/19
f 25/8/19 7/8/19 8/9/19
f 10/4/20 26/9/20 8/9/20
f 10/4/20 28/4/20 26/9/20
f 9/1/18 28/4/18 10/4/18
f 9/1/18 27/1/18 28/4/18
f 27/1/17 7/8/17 25/8/17
f 27/1/17 9/1/17 7/8/17
f 40/20/22 11/17/6 13/18/7
f 40/20/22 5/7/1 11/17/6
f 38/19/21 5/7/1 40/20/22
f 38/19/21 14/6/1 5/7/1
f 37/24/1 52/21/1 43/25/1
f 37/24/1 51/22/1 52/21/1
f 37/24/1 46/23/1 51/22/1
f 44/30/1 47/27/24 39/26/23
f 44/30/1 53/28/1 47/27/24
f 44/30/1 54/29/1 53/28/1
f 57/32/1 41/34/21 50/33/1
f 58/31/1 41/34/21 57/32/1
f 58/31/1 45/35/21 41/34/21
f 55/38/1 49/37/26 42/36/25
f 42/36/25 56/39/1 55/38/1
f 42/36/25 48/40/27 56/39/1
f 24/5/17 12/12/17 30/12/17
f 24/5/17 39/26/17 12/12/17
f 24/5/17 44/41/17 39/26/17
f 24/5/17 43/42/17 44/41/17
f 24/5/17 37/24/17 43/42/17
f 24/5/17 6/5/17 37/24/17
f 41/34/21 14/6/1 38/19/21
f 6/5/1 46/44/1 37/43/1
f 6/5/1 45/35/21 46/44/1
f 6/5/1 41/34/21 45/35/21
f 6/5/1 14/6/1 41/34/21
f 12/12/2 40/20/22 13/18/7
f 42/36/25 40/20/22 12/12/2
f 48/40/27 42/36/25 12/12/2
f 39/26/23 48/40/27 12/12/2
f 39/26/23 47/27/24 48/40/27
f 49/45/1 40/20/22 42/36/25
f 49/45/1 38/19/21 40/20/22
f 50/33/1 38/19/21 49/45/1
f 50/33/1 41/34/21 38/19/21
f 43/25/1 59/30/1 44/30/1
f 43/25/1 60/25/1 59/30/1
f 60/25/1 43/25/1 52/21/1
f 54/46/1 44/30/1 59/30/1
g obj7
s 1
f 68/47/28 84/49/29 83/48/29
f 68/47/28 69/50/28 84/49/29
f 83/48/29 86/52/30 85/51/30
f 83/48/29 84/49/29 86/52/30
f 71/56/31 87/54/32 70/53/31
f 71/56/31 88/55/32 87/54/32
f 87/54/32 90/58/33 89/57/33
f 87/54/32 88/55/32 90/58/33
f 89/57/33 63/59/34 64/59/34
f 89/57/33 90/58/33 63/59/34
f 74/63/35 91/61/36 73/60/35
f 74/63/35 92/62/36 91/61/36
f 92/62/36 93/64/37 91/61/36
f 92/62/36 94/65/37 93/64/37
f 94/65/37 66/66/38 93/64/37
f 94/65/37 65/66/38 66/66/38
f 75/67/39 96/69/40 95/68/40
f 75/67/39 76/70/39 96/69/40
f 96/69/40 97/71/41 95/68/40
f 96/69/40 98/72/41 97/71/41
f 79/73/42 100/75/43 99/74/43
f 79/73/42 80/76/42 100/75/43
f 101/77/44 100/75/43 102/78/45
f 101/77/44 99/74/43 100/75/43
f 101/77/44 77/80/47 78/79/46
f 101/77/44 102/78/45 77/80/47
f 104/83/49 81/81/48 82/84/50
f 104/83/49 103/82/49 81/81/48
f 104/83/49 105/85/51 103/82/49
f 104/83/49 106/86/52 105/85/51
f 105/85/51 72/88/54 67/87/53
f 105/85/51 106/86/52 72/88/54
f 64/59/34 66/66/38 65/66/38
f 64/59/34 63/59/34 66/66/38
f 67/87/53 69/50/28 68/47/28
f 72/88/54 70/53/31 69/50/28
f 72/88/54 71/56/31 70/53/31
f 69/50/28 67/87/53 72/88/54
f 78/79/46 76/70/39 75/67/39
f 78/79/46 77/80/47 76/70/39
f 74/63/35 78/79/46 75/67/39
f 74/63/35 73/60/35 78/79/46
f 79/73/42 81/81/48 80/76/42
f 79/73/42 82/84/50 81/81/48
f 75/67/55 92/89/55 74/63/55
f 95/98/55 92/89/55 75/67/55
f 95/98/55 94/90/55 92/89/55
f 97/97/55 94/90/55 95/98/55
f 97/97/55 65/66/55 94/90/55
f 61/96/55 65/66/55 97/97/55
f 61/96/55 64/59/55 65/66/55
f 62/95/55 64/59/55 61/96/55
f 62/95/55 89/91/55 64/59/55
f 86/94/55 89/91/55 62/95/55
f 86/94/55 87/92/55 89/91/55
f 84/93/55 87/92/55 86/94/55
f 84/93/55 70/53/55 87/92/55
f 84/93/55 69/50/55 70/53/55
f 91/100/56 78/79/56 73/60/56
f 91/100/56 101/101/56 78/79/56
f 93/99/56 101/101/56 91/100/56
f 93/99/56 99/102/56 101/101/56
f 66/66/56 99/102/56 93/99/56
f 66/66/56 79/73/56 99/102/56
f 63/59/56 79/73/56 66/66/56
f 63/59/56 82/84/56 79/73/56
f 63/59/56 104/103/56 82/84/56
f 90/106/56 104/103/56 63/59/56
f 90/106/56 106/104/56 104/103/56
f 88/105/56 106/104/56 90/106/56
f 88/105/56 72/88/56 106/104/56
f 88/105/56 71/56/56 72/88/56
f 108/95/58 61/96/57 107/96/57
f 108/95/58 62/95/58 61/96/57
f 85/51/30 62/95/58 108/95/58
f 85/51/30 86/52/30 62/95/58
f 107/96/57 97/71/41 98/72/41
f 107/96/57 61/96/57 97/71/41
# 184 elements

