# Created by Metasequoia

mtllib Express 1000_æ–±ˆõº‰EƒhƒA.mtl

v -2.000000 201.799988 -49.055168
v -2.000000 0.560000 -49.055168
v -2.000000 0.560000 0.084620
v -2.000000 201.800003 0.084620
v -2.000000 86.214279 0.084620
v -2.000000 86.217529 -49.055168
v -2.000000 97.512283 -7.616200
v -2.000000 97.512283 -40.276497
v -2.000000 183.480942 -7.616200
v -2.000000 183.480942 -40.536221
v -2.000000 72.205460 0.084620
v -2.000000 72.209999 -49.055168
v -2.000000 72.205460 -30.424999
v -2.000000 86.214279 -30.424999
v -2.000000 141.858490 0.084620
v -2.000000 8.987762 0.084620
v -2.000000 142.126358 -49.055168
v -2.000000 9.623293 -49.055168
v 1.000000 201.800003 -49.055168
v 1.000000 0.560000 -49.055168
v 1.000000 0.560000 0.084620
v 1.000000 201.800003 0.084620
v 1.000000 86.037331 0.084620
v 1.000000 86.037331 -49.055168
v 1.000000 97.512283 -7.616200
v 1.000000 97.512283 -40.276497
v 1.000000 183.480942 -7.616200
v 1.000000 183.480942 -40.536221
v 1.000000 72.205460 0.084620
v 1.000000 72.209999 -49.055168
v 1.000000 72.205460 -34.424587
v 1.000000 86.037331 -34.424587
v 1.000000 141.899994 0.084620
v 1.000000 8.987762 0.084620
v 1.000000 142.126358 -49.055168
v 1.000000 9.623293 -49.055168
v -2.000000 81.347633 -49.055168
v -2.000000 81.347633 -30.424999
v -2.000000 77.693367 -49.055168
v -2.000000 77.693367 -30.424999
v -2.000000 81.347633 -41.539562
v -2.000000 77.693359 -41.539562
v -2.000000 80.347633 -49.055168
v -2.000000 78.693367 -49.055168
v -2.000000 81.347633 -42.539562
v -2.000000 81.347633 -44.055168
v -2.000000 77.693367 -44.055168
v -2.000000 77.693359 -42.539562
v -2.000000 78.693359 -41.539562
v -2.000000 80.347633 -41.539562
v -2.000000 81.213661 -44.555168
v -2.000000 80.847633 -44.921196
v -2.000000 77.827339 -44.555168
v -2.000000 78.193367 -44.921196
v -2.000000 78.193375 -41.539562
v -2.000000 77.827332 -42.039562
v -2.000000 80.847626 -41.789562
v -2.000000 81.213661 -42.039562
v -2.000000 78.693367 -45.055000
v -2.000000 80.347633 -45.055000
v -6.000000 78.693367 -45.055000
v -6.000000 80.347633 -45.055000
v -3.931641 80.347633 -30.424587
v -6.000000 80.347633 -30.424587
v -6.000000 78.693367 -30.424587
v -3.931641 78.693367 -30.424587
v -2.000000 81.347633 -42.539562
v -2.000000 81.347633 -44.055168
v -6.000000 81.347633 -44.055168
v -6.000000 81.347633 -31.424587
v -3.931641 81.347633 -31.424587
v -3.931641 81.347626 -42.539562
v -3.931641 77.693367 -31.424587
v -6.000000 77.693367 -31.424587
v -6.000000 77.693367 -44.055168
v -2.000000 77.693367 -44.055168
v -2.000000 77.693359 -42.539562
v -3.931641 77.693398 -42.539562
v -3.931641 78.693398 -41.539562
v -2.000000 78.693359 -41.539562
v -2.000000 80.347633 -41.539562
v -3.931641 80.347626 -41.539562
v -2.000000 81.213661 -44.555168
v -6.000000 81.213661 -44.555168
v -2.000000 80.847633 -44.921196
v -6.000000 80.847633 -44.921196
v -6.000000 81.213661 -30.924587
v -3.931641 81.213661 -30.924587
v -6.000000 80.847633 -30.558559
v -3.931641 80.847633 -30.558559
v -3.931641 77.827339 -30.924587
v -6.000000 77.827339 -30.924587
v -3.931641 78.193367 -30.558559
v -6.000000 78.193367 -30.558559
v -6.000000 77.827339 -44.555168
v -2.000000 77.827339 -44.555168
v -6.000000 78.193367 -44.921196
v -2.000000 78.193367 -44.921196
v -3.931641 78.193375 -41.539562
v -2.000000 78.193375 -41.539562
v -3.931641 77.827370 -42.039562
v -2.000000 77.827332 -42.039562
v -2.000000 80.847626 -41.789562
v -3.931641 80.847626 -41.789562
v -2.000000 81.213661 -42.039562
v -3.931641 81.213654 -42.039562
v -2.000000 78.693367 -45.055000
v -2.000000 80.347633 -45.055000
# 108 vertices

vt 0.06233 0.22781
vt 0.06870 0.15523
vt 0.03288 0.15992
vt 0.03839 0.23095
vt 0.06215 0.56426
vt 0.03760 0.56778
vt 0.03177 0.61123
vt 0.05770 0.60985
vt 0.06873 0.60926
vt 0.03230 0.39380
vt 0.06872 0.38938
vt 0.05772 0.66446
vt 0.03163 0.66670
vt 0.03103 0.91377
vt 0.03095 0.94655
vt 0.06876 0.94483
vt 0.06876 0.90909
vt 0.06874 0.66351
vt 0.05771 0.64295
vt 0.05771 0.62921
vt 0.06874 0.63174
vt 0.06874 0.62773
vt 0.06802 0.62782
vt 0.06826 0.62913
vt 0.06850 0.63043
vt 0.06874 0.63838
vt 0.06850 0.63972
vt 0.06827 0.64107
vt 0.06803 0.64242
vt 0.06874 0.64239
vt 0.06693 0.62797
vt 0.06621 0.62807
vt 0.06622 0.63202
vt 0.06646 0.63067
vt 0.06670 0.62932
vt 0.06696 0.64248
vt 0.06672 0.64117
vt 0.06648 0.63987
vt 0.06624 0.63856
vt 0.06625 0.64251
vt 0.06874 0.63174
vt 0.06874 0.63838
vt 0.06802 0.62782
vt 0.06874 0.62773
vt 0.06624 0.63856
vt 0.06850 0.63972
vt 0.06798 0.62783
vt 0.06823 0.62913
vt 0.06826 0.62913
vt 0.06802 0.62782
vt 0.06849 0.63043
vt 0.06850 0.63043
vt 0.05843 0.62912
vt 0.05819 0.63040
vt 0.05821 0.63040
vt 0.05846 0.62911
vt 0.05795 0.63169
vt 0.05796 0.63168
vt 0.05771 0.63297
vt 0.05847 0.64291
vt 0.05821 0.64167
vt 0.05822 0.64167
vt 0.05847 0.64291
vt 0.05796 0.64043
vt 0.05797 0.64043
vt 0.05771 0.63919
vt 0.06803 0.64242
vt 0.06827 0.64107
vt 0.06824 0.64108
vt 0.06798 0.64243
vt 0.06850 0.63972
vt 0.06849 0.63973
vt 0.06624 0.63856
vt 0.06648 0.63987
vt 0.06584 0.63991
vt 0.06605 0.63858
vt 0.06672 0.64117
vt 0.06563 0.64123
vt 0.06696 0.64248
vt 0.06542 0.64256
vt 0.06584 0.63207
vt 0.06555 0.63079
vt 0.06646 0.63067
vt 0.06622 0.63202
vt 0.06527 0.62951
vt 0.06670 0.62932
vt 0.06499 0.62823
vt 0.06693 0.62797
vt 0.05781 0.63108
vt 0.05807 0.62967
vt 0.06536 0.62871
vt 0.06567 0.63011
vt 0.06601 0.64056
vt 0.06578 0.64201
vt 0.05809 0.64242
vt 0.05781 0.64106
vt 0.06874 0.63174
vt 0.06874 0.63838
vt 0.06836 0.64187
vt 0.06864 0.64039
vt 0.06864 0.62974
vt 0.06836 0.62831
vt 0.05808 0.62967
vt 0.05781 0.63108
vt 0.05781 0.64106
vt 0.05809 0.64242
# 106 texture vertices

vn -1.00000 0.00000 0.00000
vn -1.00000 0.00000 0.00000
vn 1.00000 0.00000 0.00000
vn 1.00000 0.00000 0.00000
vn -0.00000 1.00000 -0.00000
vn 0.00000 0.00000 1.00000
vn 0.00000 0.00000 -1.00000
vn 0.00000 -1.00000 0.00000
vn 0.00000 1.00000 0.00000
vn 0.00000 0.00302 1.00000
vn 0.00000 0.00000 0.00000
vn 0.00000 0.99145 -0.13052
vn 0.00000 0.86603 -0.50000
vn 0.00000 0.49986 -0.86610
vn 0.00000 0.99145 0.13052
vn 0.00000 0.86603 0.50000
vn 0.00000 0.50000 0.86603
vn 0.00000 0.13052 0.99145
vn 0.00000 -0.99145 0.13052
vn 0.00000 -0.86603 0.50000
vn 0.00000 -0.50000 0.86603
vn 0.00000 -0.13052 0.99145
vn 0.00000 -0.99145 -0.13052
vn 0.00000 -0.86603 -0.50000
vn 0.00000 -0.49986 -0.86610
vn 0.00000 0.00000 1.00000
vn -0.00000 -0.45239 0.89182
vn -0.00001 -0.90182 0.43212
vn -0.00001 -0.90181 0.43214
vn -0.00001 -0.99145 0.13052
vn -0.00001 -0.99144 0.13053
vn -0.00000 0.22974 0.97325
vn -0.00000 0.50677 0.86208
vn -0.00000 0.22976 0.97325
vn -0.00000 0.81579 0.57835
vn -0.00000 0.81581 0.57832
vn -0.00000 0.99144 0.13053
vn -0.00000 0.99145 0.13052
vn 1.00000 0.00000 0.00000
vn 1.00000 0.00000 0.00000
vn 0.00000 0.13037 -0.99147
vn 0.00000 -0.13037 -0.99147
vn -1.00000 0.00000 0.00000
# 43 normal vertices

g obj6
s 1
usemtl mat1
f 9/4/1 1/2/1 10/1/1
f 9/4/1 4/3/1 1/2/1
f 7/6/1 14/8/1 5/7/1
f 7/6/1 6/9/1 14/8/1
f 7/6/1 8/5/1 6/9/1
f 15/10/1 7/6/1 5/7/1
f 15/10/1 9/4/1 7/6/1
f 15/10/1 4/3/1 9/4/1
f 8/5/1 17/11/1 6/9/1
f 10/1/1 17/11/1 8/5/1
f 10/1/1 1/2/1 17/11/1
f 16/14/2 2/16/1 3/15/1
f 16/14/2 18/17/1 2/16/1
f 11/13/1 18/17/1 16/14/2
f 13/12/1 12/18/1 18/17/1
f 18/17/1 11/13/1 13/12/1
f 28/1/3 22/3/3 27/4/3
f 28/1/3 19/2/3 22/3/3
f 32/8/3 29/13/3 31/12/4
f 32/8/3 23/7/3 29/13/3
f 30/18/3 32/8/3 31/12/4
f 30/18/3 24/9/3 32/8/3
f 26/5/3 32/8/3 24/9/3
f 26/5/3 23/7/3 32/8/3
f 26/5/3 25/6/3 23/7/3
f 25/6/3 33/10/3 23/7/3
f 27/4/3 33/10/3 25/6/3
f 27/4/3 22/3/3 33/10/3
f 35/11/3 26/5/3 24/9/3
f 35/11/3 28/1/3 26/5/3
f 35/11/3 19/2/3 28/1/3
f 36/17/3 21/15/3 20/16/3
f 36/17/3 34/14/3 21/15/3
f 36/17/3 29/13/3 34/14/3
f 31/12/4 29/13/3 36/17/3
f 36/17/3 30/18/3 31/12/4
f 4/3/5 19/2/5 1/2/5
f 4/3/5 22/3/5 19/2/5
f 33/10/6 4/3/6 15/10/6
f 33/10/6 22/3/6 4/3/6
f 33/10/6 5/7/6 23/7/6
f 33/10/6 15/10/6 5/7/6
f 23/7/6 11/13/6 29/13/6
f 23/7/6 5/7/6 11/13/6
f 29/13/6 16/14/6 34/14/6
f 29/13/6 11/13/6 16/14/6
f 34/14/6 3/15/6 21/15/6
f 34/14/6 16/14/6 3/15/6
f 1/2/7 35/11/7 17/11/7
f 1/2/7 19/2/7 35/11/7
f 6/9/7 35/11/7 24/9/7
f 6/9/7 17/11/7 35/11/7
f 12/18/7 36/17/7 18/17/7
f 12/18/7 30/18/7 36/17/7
f 18/17/7 20/16/7 2/16/7
f 18/17/7 36/17/7 20/16/7
f 21/15/8 2/16/8 20/16/8
f 21/15/8 3/15/8 2/16/8
f 7/6/9 26/5/9 8/5/9
f 7/6/9 25/6/9 26/5/9
f 28/1/10 8/5/10 26/5/10
f 28/1/10 10/1/10 8/5/10
f 27/4/8 10/1/8 28/1/8
f 27/4/8 9/4/8 10/1/8
f 9/4/7 25/6/7 7/6/7
f 9/4/7 27/4/7 25/6/7
f 5/7/1 13/12/1 11/13/1
f 5/7/1 40/19/1 13/12/1
f 5/7/1 38/20/2 40/19/1
f 5/7/1 14/8/1 38/20/2
f 52/25/1 37/22/1 43/21/1
f 51/24/1 37/22/1 52/25/1
f 51/24/1 46/23/1 37/22/1
f 53/28/1 39/30/1 47/29/1
f 53/28/1 44/26/1 39/30/1
f 53/28/1 54/27/1 44/26/1
f 41/32/2 57/34/1 50/33/1
f 41/32/2 58/35/1 57/34/1
f 41/32/2 45/31/2 58/35/1
f 42/40/1 56/37/1 48/36/2
f 55/38/1 56/37/1 42/40/1
f 42/40/1 49/39/11 55/38/1
f 39/30/7 30/18/7 12/18/7
f 39/30/7 24/9/7 30/18/7
f 44/42/7 24/9/7 39/30/7
f 43/41/7 24/9/7 44/42/7
f 37/22/7 24/9/7 43/41/7
f 37/22/7 6/9/7 24/9/7
f 38/20/2 45/31/2 41/32/2
f 38/20/2 46/43/1 45/31/2
f 38/20/2 37/44/1 46/43/1
f 38/20/2 6/9/1 37/44/1
f 38/20/2 14/8/1 6/9/1
f 40/19/1 12/18/1 13/12/1
f 48/36/2 39/30/1 12/18/1
f 48/36/2 47/29/1 39/30/1
f 42/40/1 48/36/2 12/18/1
f 12/18/1 40/19/1 42/40/1
f 40/19/1 49/45/1 42/40/1
f 38/20/2 49/45/1 40/19/1
f 38/20/2 50/33/1 49/45/1
f 38/20/2 41/32/2 50/33/1
f 60/21/1 44/26/1 59/26/1
f 60/21/1 43/21/1 44/26/1
f 52/25/1 43/21/1 60/21/1
f 59/26/1 44/26/1 54/46/1
g obj7
s 1
f 69/47/12 83/49/13 84/48/13
f 69/47/12 68/50/12 83/49/13
f 84/48/13 85/52/14 86/51/14
f 84/48/13 83/49/13 85/52/14
f 70/56/15 88/54/16 71/53/15
f 70/56/15 87/55/16 88/54/16
f 88/54/16 89/58/17 90/57/17
f 88/54/16 87/55/16 89/58/17
f 90/57/17 64/59/18 63/59/18
f 90/57/17 89/58/17 64/59/18
f 73/63/19 92/61/20 74/60/19
f 73/63/19 91/62/20 92/61/20
f 91/62/20 94/64/21 92/61/20
f 91/62/20 93/65/21 94/64/21
f 93/65/21 65/66/22 94/64/21
f 93/65/21 66/66/22 65/66/22
f 76/67/23 95/69/24 96/68/24
f 76/67/23 75/70/23 95/69/24
f 95/69/24 98/71/25 96/68/24
f 95/69/24 97/72/25 98/71/25
f 80/73/26 99/75/27 100/74/27
f 80/73/26 79/76/26 99/75/27
f 100/74/27 101/78/29 102/77/28
f 100/74/27 99/75/27 101/78/29
f 77/79/30 101/78/29 78/80/31
f 77/79/30 102/77/28 101/78/29
f 81/84/34 104/82/33 82/81/32
f 81/84/34 103/83/33 104/82/33
f 103/83/33 106/85/35 104/82/33
f 103/83/33 105/86/36 106/85/35
f 63/59/18 65/66/22 66/66/22
f 63/59/18 64/59/18 65/66/22
f 72/87/37 68/50/12 69/47/12
f 72/87/37 67/88/38 68/50/12
f 70/56/15 72/87/37 69/47/12
f 70/56/15 71/53/15 72/87/37
f 77/79/30 75/70/23 76/67/23
f 78/80/31 74/60/19 75/70/23
f 78/80/31 73/63/19 74/60/19
f 75/70/23 77/79/30 78/80/31
f 81/84/34 79/76/26 80/73/26
f 81/84/34 82/81/32 79/76/26
f 78/80/39 91/95/39 73/63/39
f 101/94/39 91/95/39 78/80/39
f 101/94/39 93/96/39 91/95/39
f 99/93/39 93/96/39 101/94/39
f 99/93/39 66/66/39 93/96/39
f 79/76/39 66/66/39 99/93/39
f 79/76/39 63/59/39 66/66/39
f 82/81/39 63/59/39 79/76/39
f 104/92/39 63/59/39 82/81/39
f 104/92/39 90/89/39 63/59/39
f 106/91/40 90/89/39 104/92/39
f 106/91/40 88/90/39 90/89/39
f 72/87/39 88/90/39 106/91/40
f 72/87/39 71/53/39 88/90/39
f 62/97/41 107/98/42 61/98/42
f 62/97/41 108/97/41 107/98/42
f 86/51/14 108/97/41 62/97/41
f 86/51/14 85/52/14 108/97/41
f 61/98/42 98/71/25 97/72/25
f 61/98/42 107/98/42 98/71/25
f 106/85/35 67/88/38 72/87/37
f 106/85/35 105/86/36 67/88/38
f 74/60/43 95/99/43 75/70/43
f 92/106/43 95/99/43 74/60/43
f 92/106/43 97/100/43 95/99/43
f 94/105/43 97/100/43 92/106/43
f 94/105/43 61/98/43 97/100/43
f 65/66/43 61/98/43 94/105/43
f 65/66/43 62/97/43 61/98/43
f 64/59/43 62/97/43 65/66/43
f 64/59/43 86/101/43 62/97/43
f 89/104/43 86/101/43 64/59/43
f 89/104/43 84/102/43 86/101/43
f 87/103/43 84/102/43 89/104/43
f 87/103/43 69/47/43 84/102/43
f 87/103/43 70/56/43 69/47/43
# 184 elements

