# Created by Metasequoia

mtllib Express 1000_ŠÑ’Ê”à.mtl

v 33.993320 19.855923 95.999756
v 33.122581 36.440735 95.999756
v 31.177931 19.855923 95.999771
v 31.049263 37.733467 95.999771
v 0.000000 19.855923 100.000008
v 25.334169 19.855923 99.999817
v 16.730814 19.855923 99.999886
v 16.649651 26.056213 99.999756
v 25.415333 26.056213 99.999756
v 0.000000 26.299706 100.000000
v 3.744612 19.855923 99.999977
v 3.825777 26.299706 100.000000
v -0.000016 49.999519 98.000000
v 11.373978 50.001297 97.999908
v 31.177944 19.855923 97.999771
v 31.049278 37.733467 97.999771
v 25.334152 19.855923 97.999817
v 16.730797 19.855923 97.999886
v 16.649633 26.056213 97.999756
v 25.415316 26.056213 97.999756
v -0.000017 26.299706 98.000000
v 3.744595 19.855923 97.999977
v 3.825760 26.299706 98.000000
v 33.993320 19.855923 95.999756
v -0.000031 215.300003 96.000000
v 33.993320 215.300003 95.999756
v -0.000031 208.505493 96.000000
v 0.000000 100.979797 96.000000
v 29.734108 100.979797 95.999756
v 29.734104 208.505493 95.999756
v -0.000032 49.999519 96.000000
v 32.410442 50.004574 95.999756
v 33.122581 36.440735 95.999756
v 11.373962 50.001297 95.999908
v 31.177931 19.855923 95.999771
v 31.049263 37.733467 95.999771
v -0.000063 19.855835 88.000000
v 33.993385 19.855835 88.000000
v -0.000062 215.300079 88.000000
v 33.993397 215.300049 88.000000
v -0.000085 208.505524 88.000000
v -0.000086 100.979797 88.000000
v 29.734089 100.979797 88.000000
v 29.734081 208.505508 88.000000
v -33.993320 19.855923 95.999756
v -33.122581 36.440735 95.999756
v -31.177931 19.855923 95.999771
v -31.049263 37.733467 95.999771
v -25.334169 19.855923 99.999817
v -16.730814 19.855923 99.999886
v -16.649651 26.056213 99.999756
v -25.415333 26.056213 99.999756
v -3.744612 19.855923 99.999977
v -3.825777 26.299706 100.000000
v 0.000016 49.999519 98.000000
v -11.373978 50.001297 97.999908
v -31.177944 19.855923 97.999771
v -31.049278 37.733467 97.999771
v -25.334152 19.855923 97.999817
v -16.730797 19.855923 97.999886
v -16.649633 26.056213 97.999756
v -25.415316 26.056213 97.999756
v 0.000017 26.299706 98.000000
v -3.744595 19.855923 97.999977
v -3.825760 26.299706 98.000000
v -33.993320 19.855923 95.999756
v 0.000031 215.300003 96.000000
v -33.993320 215.300003 95.999756
v 0.000031 208.505493 96.000000
v -29.734108 100.979797 95.999756
v -29.734104 208.505493 95.999756
v 0.000032 49.999519 96.000000
v -32.410442 50.004574 95.999756
v -33.122581 36.440735 95.999756
v -11.373962 50.001297 95.999908
v -31.177931 19.855923 95.999771
v -31.049263 37.733467 95.999771
v 0.000063 19.855835 88.000000
v -33.993385 19.855835 88.000000
v 0.000062 215.300079 88.000000
v -33.993397 215.300049 88.000000
v 0.000085 208.505524 88.000000
v 0.000086 100.979797 88.000000
v -29.734089 100.979797 88.000000
v -29.734081 208.505508 88.000000
v 16.734089 100.979797 88.000000
v 16.734108 100.979797 95.999863
v 29.734081 195.505508 88.000000
v 29.734104 195.505493 95.999756
v 29.734108 113.979797 95.999756
v 29.734089 113.979797 88.000000
v 16.734104 208.505493 95.999863
v 16.734081 208.505508 88.000000
v -16.734108 100.979797 95.999863
v -16.734089 100.979797 88.000000
v -29.734089 113.979797 88.000000
v -29.734108 113.979797 95.999756
v -29.734104 195.505493 95.999756
v -29.734081 195.505508 88.000000
v -16.734081 208.505508 88.000000
v -16.734104 208.505493 95.999863
v 29.291143 110.615150 95.999756
v 29.291124 110.615150 88.000000
v 27.992437 107.479797 95.999771
v 27.992418 107.479797 88.000000
v 25.926497 104.787407 95.999786
v 25.926477 104.787407 88.000000
v 23.234108 102.721466 95.999809
v 23.234089 102.721466 88.000000
v 20.098757 101.422760 95.999832
v 20.098738 101.422760 88.000000
v 20.098751 208.062531 95.999832
v 20.098728 208.062546 88.000000
v 23.234104 206.763824 95.999809
v 23.234081 206.763840 88.000000
v 25.926491 204.697876 95.999786
v 25.926468 204.697891 88.000000
v 27.992435 202.005493 95.999771
v 27.992413 202.005508 88.000000
v 29.291140 198.870148 95.999756
v 29.291117 198.870163 88.000000
v -29.291124 110.615150 88.000000
v -29.291143 110.615150 95.999756
v -27.992418 107.479797 88.000000
v -27.992437 107.479797 95.999771
v -25.926477 104.787407 88.000000
v -25.926497 104.787407 95.999786
v -23.234089 102.721466 88.000000
v -23.234108 102.721466 95.999809
v -20.098738 101.422760 88.000000
v -20.098757 101.422760 95.999832
v -20.098728 208.062546 88.000000
v -20.098751 208.062531 95.999832
v -23.234081 206.763840 88.000000
v -23.234104 206.763824 95.999809
v -25.926468 204.697891 88.000000
v -25.926491 204.697876 95.999786
v -27.992413 202.005508 88.000000
v -27.992435 202.005493 95.999771
v -29.291117 198.870163 88.000000
v -29.291140 198.870148 95.999756
# 141 vertices

vt 0.61571 0.67151
vt 0.62345 0.70530
vt 0.62716 0.74058
vt 0.61663 0.68499
vt 0.59477 0.56961
vt 0.56259 0.39974
vt 0.56213 0.39435
vt 0.59492 0.56742
vt 0.51401 0.14334
vt 0.50000 0.06941
vt 0.50000 0.09193
vt 0.51428 0.16162
vt 0.50000 0.17477
vt 0.54226 0.35083
vt 0.62041 0.67645
vt 0.50000 0.75219
vt 0.62100 0.39922
vt 0.60863 0.55383
vt 0.60075 0.54052
vt 0.60075 0.54052
vt 0.59287 0.52722
vt 0.59287 0.52722
vt 0.58499 0.51391
vt 0.58499 0.51391
vt 0.57710 0.50060
vt 0.57710 0.50060
vt 0.56922 0.48730
vt 0.56922 0.48730
vt 0.56134 0.47399
vt 0.56134 0.47399
vt 0.55967 0.57232
vt 0.56746 0.55442
vt 0.56746 0.55442
vt 0.55967 0.57232
vt 0.57524 0.53652
vt 0.57524 0.53652
vt 0.58303 0.51861
vt 0.58303 0.51861
vt 0.59081 0.50071
vt 0.59081 0.50071
vt 0.59860 0.48281
vt 0.59860 0.48281
vt 0.60639 0.46491
vt 0.60899 0.56801
vt 0.59287 0.52722
vt 0.57710 0.50060
vt 0.56922 0.48730
vt 0.56134 0.47399
vt 0.56922 0.48730
vt 0.57710 0.50060
vt 0.56134 0.47399
vt 0.60603 0.45073
vt 0.55967 0.57232
vt 0.57524 0.53652
vt 0.56746 0.55442
vt 0.57710 0.50060
vt 0.56922 0.48730
vt 0.59287 0.52722
vt 0.56746 0.55442
vt 0.59081 0.50071
vt 0.57524 0.53652
vt 0.50000 0.35297
vt 0.50000 0.72883
vt 0.62345 0.70530
# 64 texture vertices

vn 0.00001 0.00000 1.00000
vn 0.00000 0.00002 1.00000
vn 0.00000 -0.00000 1.00000
vn 0.00000 -0.00000 1.00000
vn 0.99991 -0.01309 -0.00001
vn 0.99991 -0.01309 -0.00001
vn 0.00000 1.00000 0.00000
vn -0.99991 -0.01309 0.00001
vn -0.99991 -0.01309 0.00001
vn 0.99992 -0.01259 -0.00001
vn 0.99992 -0.01259 -0.00001
vn 0.00000 1.00000 0.00000
vn 0.00001 0.00000 1.00000
vn 0.00001 0.00000 1.00000
vn -0.00016 1.00000 0.00000
vn 0.27509 0.96142 -0.00000
vn 0.27509 0.96142 -0.00000
vn -0.00016 1.00000 0.00000
vn 0.87262 0.48840 -0.00001
vn 0.99997 0.00720 -0.00001
vn 0.99997 0.00720 -0.00001
vn 0.87264 0.48836 -0.00001
vn 0.00001 0.00000 1.00000
vn 0.00000 0.00000 1.00000
vn 0.00000 0.00000 1.00000
vn 0.00001 0.00000 1.00000
vn 0.00000 -1.00000 0.00001
vn 0.00000 -1.00000 0.00000
vn 0.00000 -1.00000 0.00001
vn 0.00000 -1.00000 0.00001
vn 0.00000 -1.00000 0.00000
vn 0.00000 -1.00000 0.00000
vn 0.00000 -1.00000 0.00001
vn 0.00000 -1.00000 0.00001
vn 0.00000 -1.00000 0.00001
vn 0.00000 1.00000 0.00001
vn 0.00000 1.00000 0.00001
vn 0.00000 1.00000 0.00001
vn 1.00000 -0.00000 0.00001
vn 1.00000 -0.00000 0.00001
vn 1.00000 -0.00000 0.00001
vn -0.00001 0.00000 1.00000
vn -0.00001 0.00000 1.00000
vn -0.00001 0.00000 1.00000
vn -0.00000 0.00002 1.00000
vn -0.00000 -0.00000 1.00000
vn -0.99991 -0.01309 -0.00001
vn -0.99991 -0.01309 -0.00001
vn 0.99991 -0.01309 0.00001
vn 0.99991 -0.01309 0.00001
vn -0.99992 -0.01259 -0.00001
vn -0.99992 -0.01259 -0.00001
vn -0.00001 0.00000 1.00000
vn -0.00001 0.00000 1.00000
vn -0.00001 0.00000 1.00000
vn -0.00001 0.00000 1.00000
vn 0.00016 1.00000 0.00000
vn -0.27509 0.96142 -0.00000
vn -0.27509 0.96142 -0.00000
vn 0.00016 1.00000 0.00000
vn -0.87264 0.48836 -0.00001
vn -0.99997 0.00720 -0.00001
vn -0.99997 0.00720 -0.00001
vn -0.87262 0.48840 -0.00001
vn -0.00001 0.00000 1.00000
vn -0.00000 0.00000 1.00000
vn -0.00000 0.00000 1.00000
vn -0.00001 0.00000 1.00000
vn -0.00000 -1.00000 0.00001
vn -0.00000 -1.00000 0.00000
vn -0.00000 -1.00000 0.00001
vn -0.00000 -1.00000 0.00001
vn -0.00000 -1.00000 0.00001
vn -0.00000 -1.00000 0.00001
vn -0.00000 -1.00000 0.00001
vn -0.00000 1.00000 0.00001
vn -0.00000 1.00000 0.00001
vn -0.00000 1.00000 0.00001
vn -1.00000 -0.00000 0.00001
vn -1.00000 -0.00000 0.00001
vn -0.99786 0.06540 0.00000
vn -0.96593 0.25882 0.00000
vn -0.96592 0.25882 0.00000
vn -0.99786 0.06540 0.00000
vn -0.86602 0.50000 0.00000
vn -0.86602 0.50000 0.00000
vn -0.70710 0.70711 0.00000
vn -0.70710 0.70711 0.00000
vn -0.49999 0.86603 0.00000
vn -0.49999 0.86603 0.00000
vn -0.25881 0.96593 0.00000
vn -0.25881 0.96593 0.00000
vn -0.06540 0.99786 0.00000
vn -0.06540 0.99786 0.00000
vn -0.06540 -0.99786 -0.00000
vn -0.25881 -0.96593 -0.00000
vn -0.25881 -0.96593 -0.00000
vn -0.06540 -0.99786 -0.00000
vn -0.50000 -0.86603 -0.00000
vn -0.50000 -0.86603 -0.00000
vn -0.70710 -0.70711 0.00000
vn -0.70710 -0.70711 0.00000
vn -0.86602 -0.50001 0.00000
vn -0.86602 -0.50001 0.00000
vn -0.96593 -0.25882 0.00000
vn -0.96592 -0.25882 0.00000
vn -0.99786 -0.06540 0.00000
vn -0.99786 -0.06541 0.00000
vn 0.99786 0.06540 0.00000
vn 0.96592 0.25882 0.00000
vn 0.96593 0.25882 0.00000
vn 0.99786 0.06540 0.00000
vn 0.86602 0.50000 0.00000
vn 0.86602 0.50000 0.00000
vn 0.70710 0.70711 0.00000
vn 0.70710 0.70711 0.00000
vn 0.49999 0.86603 0.00000
vn 0.49999 0.86603 0.00000
vn 0.25881 0.96593 0.00000
vn 0.25881 0.96593 0.00000
vn 0.06540 0.99786 0.00000
vn 0.06540 0.99786 0.00000
vn 0.06540 -0.99786 -0.00000
vn 0.25881 -0.96593 -0.00000
vn 0.25881 -0.96593 -0.00000
vn 0.06540 -0.99786 -0.00000
vn 0.50000 -0.86603 -0.00000
vn 0.50000 -0.86603 -0.00000
vn 0.70710 -0.70711 0.00000
vn 0.70710 -0.70711 0.00000
vn 0.86602 -0.50001 0.00000
vn 0.86602 -0.50001 0.00000
vn 0.96592 -0.25882 0.00000
vn 0.96593 -0.25882 0.00000
vn 0.99786 -0.06541 0.00000
vn 0.99786 -0.06540 0.00000
vn 0.00000 0.00000 -1.00000
vn 0.00000 0.00000 -1.00000
vn 0.00001 -0.00000 1.00000
vn 0.00001 -0.00000 1.00000
vn 0.00001 -0.00000 1.00000
vn 0.00000 -0.00000 1.00000
vn 0.00000 -0.00000 1.00000
vn 0.00001 0.00000 1.00000
vn 0.00001 0.00000 1.00000
vn 0.00001 0.00000 1.00000
vn 0.00001 0.00000 1.00000
vn 0.00001 -0.00000 1.00000
vn 0.00000 -0.00000 1.00000
vn 0.00000 0.00000 1.00000
vn -0.00000 0.00000 1.00000
vn -0.00000 0.00000 1.00000
vn -0.00001 0.00000 1.00000
vn -0.00001 0.00000 1.00000
vn -0.00001 0.00000 1.00000
vn -0.00001 0.00000 1.00000
vn -0.00001 0.00000 1.00000
vn -0.00000 -0.00000 1.00000
vn -0.00001 -0.00000 1.00000
vn -0.00001 0.00000 1.00000
vn -0.00001 0.00000 1.00000
vn -0.00001 0.00000 1.00000
vn -0.00000 0.00000 1.00000
vn -0.00000 -1.00000 -0.00000
vn 0.00000 -1.00000 -0.00000
vn 0.00000 -1.00000 -0.00000
vn 0.00001 -0.00000 1.00000
vn 0.00000 -0.00000 1.00000
vn 0.00000 0.00000 1.00000
vn 0.00001 0.00000 1.00000
vn 0.00000 0.00000 1.00000
vn -0.00000 -0.00000 1.00000
vn -0.00001 -0.00000 1.00000
vn -0.00001 0.00000 1.00000
# 174 normal vertices

g obj6
s 1
usemtl mat1
f 2/2/1 3/4/1 1/3/1
f 2/2/1 4/1/1 3/4/1
f 9/8/2 7/6/2 6/5/2
f 9/8/2 8/7/2 7/6/2
f 12/12/3 5/10/4 11/9/3
f 12/12/3 10/11/4 5/10/4
f 9/8/6 17/5/6 20/8/5
f 9/8/6 6/5/5 17/5/6
f 8/7/7 20/8/7 19/7/7
f 8/7/7 9/8/7 20/8/7
f 18/6/8 8/7/8 19/7/9
f 18/6/8 7/6/9 8/7/8
f 23/12/10 11/9/10 22/9/11
f 23/12/10 12/12/11 11/9/10
f 10/11/7 23/12/7 21/11/12
f 10/11/7 12/12/12 23/12/7
f 16/1/14 17/5/14 15/4/14
f 16/1/14 20/8/14 17/5/14
f 19/7/14 22/9/13 18/6/14
f 19/7/14 23/12/13 22/9/13
f 16/1/14 19/7/14 20/8/14
f 16/1/14 23/12/13 19/7/14
f 16/1/14 21/11/13 23/12/13
f 16/1/14 13/13/13 21/11/13
f 16/1/14 14/14/13 13/13/13
f 31/13/15 14/14/17 34/14/16
f 31/13/15 13/13/18 14/14/17
f 16/1/22 35/4/20 36/1/19
f 16/1/22 15/4/21 35/4/20
f 34/14/16 16/1/22 36/1/19
f 34/14/16 14/14/17 16/1/22
f 32/15/24 36/1/26 33/2/25
f 32/15/24 34/14/23 36/1/26
f 22/9/29 11/9/28 5/10/27
f 6/5/28 18/6/30 17/5/31
f 6/5/28 7/6/28 18/6/30
f 3/4/33 15/4/32 17/5/31
f 1/3/34 37/10/35 38/3/34
f 22/9/29 5/10/27 37/10/35
f 3/4/33 22/9/29 37/10/35
f 17/5/31 22/9/29 3/4/33
f 17/5/31 18/6/30 22/9/29
f 37/10/35 1/3/34 3/4/33
f 25/16/36 40/17/37 39/16/36
f 25/16/36 26/17/38 40/17/37
f 40/17/40 1/3/39 38/3/41
f 40/17/40 26/17/39 1/3/39
f 48/1/42 45/3/43 47/4/42
f 48/1/42 46/2/44 45/3/43
f 51/7/45 49/5/45 50/6/45
f 51/7/45 52/8/45 49/5/45
f 10/11/4 53/9/46 5/10/4
f 10/11/4 54/12/46 53/9/46
f 59/5/47 52/8/47 62/8/48
f 59/5/47 49/5/48 52/8/47
f 52/8/7 61/7/7 62/8/7
f 52/8/7 51/7/7 61/7/7
f 51/7/50 60/6/50 61/7/49
f 51/7/50 50/6/49 60/6/50
f 53/9/52 65/12/52 64/9/51
f 53/9/52 54/12/51 65/12/52
f 54/12/12 63/11/12 65/12/7
f 54/12/12 10/11/7 63/11/12
f 65/12/53 60/6/53 64/9/53
f 65/12/53 61/7/53 60/6/53
f 62/8/53 57/4/54 59/5/53
f 62/8/53 58/1/54 57/4/54
f 65/12/53 62/8/53 61/7/53
f 65/12/53 58/1/54 62/8/53
f 55/13/56 65/12/53 63/11/53
f 55/13/56 58/1/54 65/12/53
f 55/13/56 56/14/55 58/1/54
f 56/14/58 72/13/60 75/14/59
f 56/14/58 55/13/57 72/13/60
f 57/4/62 77/1/64 76/4/63
f 57/4/62 58/1/61 77/1/64
f 58/1/61 75/14/59 77/1/64
f 58/1/61 56/14/58 75/14/59
f 77/1/65 73/15/67 74/2/66
f 77/1/65 75/14/68 73/15/67
f 5/10/27 53/9/28 64/9/69
f 60/6/71 49/5/28 59/5/70
f 60/6/71 50/6/28 49/5/28
f 59/5/70 57/4/32 47/4/72
f 64/9/69 79/3/74 78/10/73
f 47/4/72 45/3/75 79/3/74
f 64/9/69 47/4/72 79/3/74
f 64/9/69 59/5/70 47/4/72
f 64/9/69 60/6/71 59/5/70
f 78/10/73 5/10/27 64/9/69
f 68/17/76 80/16/78 81/17/77
f 68/17/76 67/16/78 80/16/78
f 45/3/79 81/17/79 79/3/80
f 45/3/79 68/17/79 81/17/79
f 102/19/82 91/18/84 103/20/83
f 102/19/82 90/18/81 91/18/84
f 104/21/85 103/20/83 105/22/86
f 104/21/85 102/19/82 103/20/83
f 106/23/87 105/22/86 107/24/88
f 106/23/87 104/21/85 105/22/86
f 108/25/89 107/24/88 109/26/90
f 108/25/89 106/23/87 107/24/88
f 110/27/91 109/26/90 111/28/92
f 110/27/91 108/25/89 109/26/90
f 87/29/93 111/28/92 86/30/94
f 87/29/93 110/27/91 111/28/92
f 112/32/96 93/34/98 113/33/97
f 112/32/96 92/31/95 93/34/98
f 114/35/99 113/33/97 115/36/100
f 114/35/99 112/32/96 113/33/97
f 116/37/101 115/36/100 117/38/102
f 116/37/101 114/35/99 115/36/100
f 118/39/103 117/38/102 119/40/104
f 118/39/103 116/37/101 117/38/102
f 120/41/105 119/40/104 121/42/106
f 120/41/105 118/39/103 119/40/104
f 89/43/107 121/42/106 88/43/108
f 89/43/107 120/41/105 121/42/106
f 97/18/112 122/20/110 96/18/109
f 97/18/112 123/19/111 122/20/110
f 123/19/111 124/22/113 122/20/110
f 123/19/111 125/21/114 124/22/113
f 125/21/114 126/24/115 124/22/113
f 125/21/114 127/23/116 126/24/115
f 127/23/116 128/26/117 126/24/115
f 127/23/116 129/25/118 128/26/117
f 129/25/118 130/28/119 128/26/117
f 129/25/118 131/27/120 130/28/119
f 131/27/120 95/30/121 130/28/119
f 131/27/120 94/29/122 95/30/121
f 101/31/126 132/33/124 100/34/123
f 101/31/126 133/32/125 132/33/124
f 133/32/125 134/36/127 132/33/124
f 133/32/125 135/35/128 134/36/127
f 135/35/128 136/38/129 134/36/127
f 135/35/128 137/37/130 136/38/129
f 137/37/130 138/40/131 136/38/129
f 137/37/130 139/39/132 138/40/131
f 139/39/132 140/42/133 138/40/131
f 139/39/132 141/41/134 140/42/133
f 141/41/134 99/43/135 140/42/133
f 141/41/134 98/43/136 99/43/135
f 103/20/137 91/18/137 43/44/137
f 43/44/137 105/45/137 103/20/137
f 43/44/137 107/24/137 105/45/137
f 43/44/137 109/46/137 107/24/137
f 43/44/137 111/47/138 109/46/137
f 43/44/137 86/48/138 111/47/138
f 110/49/139 87/51/144 29/44/143
f 108/50/140 110/49/139 29/44/143
f 106/23/141 108/50/140 29/44/143
f 104/21/140 106/23/141 29/44/143
f 102/19/140 104/21/140 29/44/143
f 29/44/143 90/18/142 102/19/140
f 121/42/138 44/52/137 88/43/137
f 119/40/138 44/52/137 121/42/138
f 117/37/137 44/52/137 119/40/138
f 115/36/137 44/52/137 117/37/137
f 113/33/138 44/52/137 115/36/137
f 113/33/138 93/53/137 44/52/137
f 30/52/149 120/41/145 89/43/150
f 30/52/149 118/39/145 120/41/145
f 30/52/149 116/37/146 118/39/145
f 30/52/149 114/54/147 116/37/146
f 30/52/149 112/55/145 114/54/147
f 30/52/149 92/31/148 112/55/145
f 123/19/153 97/18/152 70/44/151
f 70/44/151 125/21/154 123/19/153
f 70/44/151 127/23/155 125/21/154
f 70/44/151 129/56/153 127/23/155
f 70/44/151 131/27/156 129/56/153
f 70/44/151 94/51/157 131/27/156
f 130/57/138 95/48/138 84/44/137
f 128/46/137 130/57/138 84/44/137
f 126/24/137 128/46/137 84/44/137
f 124/58/137 126/24/137 84/44/137
f 122/20/137 124/58/137 84/44/137
f 84/44/137 96/18/137 122/20/137
f 141/41/160 71/52/158 98/43/163
f 139/39/162 71/52/158 141/41/160
f 137/37/161 71/52/158 139/39/162
f 135/35/161 71/52/158 137/37/161
f 133/59/160 71/52/158 135/35/161
f 133/59/160 101/31/159 71/52/158
f 85/52/137 140/42/138 99/43/137
f 85/52/137 138/60/138 140/42/138
f 85/52/137 136/37/137 138/60/138
f 85/52/137 134/61/137 136/37/137
f 85/52/137 132/33/138 134/61/137
f 85/52/137 100/53/137 132/33/138
f 28/62/7 86/30/94 42/62/7
f 28/62/7 87/29/93 86/30/94
f 89/43/107 91/18/84 90/18/81
f 89/43/107 88/43/108 91/18/84
f 93/34/98 27/63/164 41/63/164
f 93/34/98 92/31/95 27/63/164
f 94/29/122 83/62/7 95/30/121
f 94/29/122 28/62/7 83/62/7
f 99/43/135 97/18/112 96/18/109
f 99/43/135 98/43/136 97/18/112
f 82/63/166 101/31/126 100/34/123
f 82/63/166 69/63/165 101/31/126
f 26/17/168 92/31/148 30/52/149
f 26/17/168 27/63/167 92/31/148
f 26/17/168 25/16/167 27/63/167
f 26/17/168 33/64/25 24/3/169
f 26/17/168 32/15/24 33/64/25
f 26/17/168 29/44/143 32/15/24
f 26/17/168 90/18/142 29/44/143
f 26/17/168 89/43/150 90/18/142
f 26/17/168 30/52/149 89/43/150
f 34/14/23 28/62/171 31/13/170
f 32/15/24 28/62/171 34/14/23
f 87/29/144 28/62/171 32/15/24
f 32/15/24 29/44/143 87/29/144
f 42/62/137 38/3/137 37/10/137
f 86/30/138 43/44/137 38/3/137
f 38/3/137 42/62/137 86/30/138
f 43/44/137 40/17/137 38/3/137
f 91/18/137 40/17/137 43/44/137
f 88/43/137 40/17/137 91/18/137
f 88/43/137 44/52/137 40/17/137
f 41/63/137 44/52/137 93/34/137
f 41/63/137 40/17/137 44/52/137
f 41/63/137 39/16/138 40/17/137
f 67/16/173 101/31/159 69/63/173
f 67/16/173 71/52/158 101/31/159
f 67/16/173 68/17/172 71/52/158
f 74/64/66 68/17/172 66/3/169
f 73/15/67 68/17/172 74/64/66
f 70/44/151 68/17/172 73/15/67
f 97/18/152 68/17/172 70/44/151
f 98/43/163 68/17/172 97/18/152
f 98/43/163 71/52/158 68/17/172
f 28/62/171 75/14/68 72/13/174
f 28/62/171 73/15/67 75/14/68
f 94/29/157 70/44/151 73/15/67
f 73/15/67 28/62/171 94/29/157
f 84/44/137 78/10/137 79/3/137
f 95/30/138 83/62/137 78/10/137
f 78/10/137 84/44/137 95/30/138
f 81/17/137 84/44/137 79/3/137
f 81/17/137 96/18/137 84/44/137
f 81/17/137 99/43/137 96/18/137
f 81/17/137 85/52/137 99/43/137
f 81/17/137 100/34/137 85/52/137
f 81/17/137 82/63/137 100/34/137
f 81/17/137 80/16/138 82/63/137
# 248 elements

