# Created by Metasequoia

mtllib Express 1000_右前ドア.mtl

v -136.000000 211.050003 -161.779373
v -136.000000 97.020782 -161.779373
v -136.000000 14.060143 -161.779373
v -136.000000 102.410797 -161.779373
v -136.000000 202.144775 -161.779358
v -136.000000 102.410797 -169.857315
v -136.000000 202.144775 -169.857315
v -136.000000 202.144775 -208.491257
v -136.000000 102.410797 -208.491257
v -133.000000 211.050003 -161.779373
v -133.000000 97.020782 -161.779373
v -133.000000 14.060143 -161.779373
v -133.000000 102.410797 -161.779373
v -133.000000 202.144775 -161.779358
v -133.000000 102.410797 -169.857315
v -133.000000 202.144775 -169.857315
v -133.000000 202.144775 -208.491257
v -133.000000 102.410797 -208.491257
v -136.000000 14.060200 -216.790024
v -136.000000 97.020782 -216.790024
v -136.000000 202.144775 -216.790024
v -136.000000 102.410797 -216.790024
v -136.000000 211.050018 -216.790024
v -133.000000 97.020782 -216.790024
v -133.000000 14.060200 -216.790024
v -133.000000 102.410797 -216.790024
v -133.000000 202.144775 -216.790024
v -133.000000 211.050018 -216.790024
v -134.500000 202.144775 -218.290024
v -134.500000 211.050018 -218.290024
v -134.500000 211.050018 -218.290024
v -134.500000 202.144775 -218.290024
v -134.500000 102.410797 -218.290024
v -134.500000 102.410797 -218.290024
v -134.500000 97.020782 -218.290024
v -134.500000 97.020782 -218.290024
v -134.500000 14.060202 -218.290024
v -134.500000 14.060202 -218.290024
v -134.888229 202.144775 -218.238907
v -134.888229 211.050018 -218.238907
v -135.250000 202.144775 -218.089066
v -135.250000 211.050018 -218.089066
v -135.560654 202.144775 -217.850677
v -135.560654 211.050018 -217.850677
v -135.799042 202.144775 -217.540024
v -135.799042 211.050018 -217.540024
v -135.948883 202.144775 -217.178253
v -135.948883 211.050018 -217.178253
v -134.111771 211.050018 -218.238907
v -134.111771 202.144775 -218.238907
v -133.750000 211.050018 -218.089066
v -133.750000 202.144775 -218.089066
v -133.439346 211.050018 -217.850677
v -133.439346 202.144775 -217.850677
v -133.200958 211.050018 -217.540024
v -133.200958 202.144775 -217.540024
v -133.051117 211.050018 -217.178253
v -133.051117 202.144775 -217.178253
v -134.888229 102.410797 -218.238907
v -135.250000 102.410797 -218.089066
v -135.560654 102.410797 -217.850677
v -135.799042 102.410797 -217.540024
v -135.948883 102.410797 -217.178253
v -134.111771 102.410797 -218.238907
v -133.750000 102.410797 -218.089066
v -133.439346 102.410797 -217.850677
v -133.200958 102.410797 -217.540024
v -133.051117 102.410797 -217.178253
v -134.888229 97.020782 -218.238907
v -135.250000 97.020782 -218.089066
v -135.560654 97.020782 -217.850677
v -135.799042 97.020782 -217.540024
v -135.948883 97.020782 -217.178253
v -134.111771 97.020782 -218.238907
v -133.750000 97.020782 -218.089066
v -133.439346 97.020782 -217.850677
v -133.200958 97.020782 -217.540024
v -133.051117 97.020782 -217.178253
v -134.111771 14.060202 -218.238907
v -133.750000 14.060202 -218.089066
v -133.439346 14.060202 -217.850677
v -133.200958 14.060201 -217.540024
v -133.051117 14.060201 -217.178253
v -134.888229 14.060202 -218.238907
v -135.250000 14.060202 -218.089066
v -135.560654 14.060202 -217.850677
v -135.799042 14.060201 -217.540024
v -135.948883 14.060201 -217.178253
v -136.000000 102.410797 -201.491257
v -133.000000 102.410797 -201.491257
v -133.000000 102.410797 -176.857315
v -136.000000 102.410797 -176.857315
v -136.000000 109.410797 -169.857315
v -133.000000 109.410797 -169.857315
v -133.000000 195.144775 -169.857315
v -136.000000 195.144775 -169.857315
v -136.000000 195.144775 -208.491257
v -133.000000 195.144775 -208.491257
v -133.000000 109.410797 -208.491257
v -136.000000 109.410797 -208.491257
v -133.000000 202.144775 -201.491257
v -136.000000 202.144775 -201.491257
v -136.000000 202.144775 -176.857315
v -133.000000 202.144775 -176.857315
v -136.000000 107.599060 -170.095840
v -133.000000 107.599060 -170.095840
v -136.000000 105.910797 -170.795135
v -133.000000 105.910797 -170.795135
v -136.000000 104.461052 -171.907562
v -133.000000 104.461052 -171.907562
v -136.000000 103.348618 -173.357315
v -133.000000 103.348618 -173.357315
v -136.000000 102.649315 -175.045578
v -133.000000 102.649315 -175.045578
v -133.000000 107.599060 -208.252731
v -136.000000 107.599060 -208.252731
v -133.000000 105.910797 -207.553436
v -136.000000 105.910797 -207.553436
v -133.000000 104.461052 -206.441010
v -136.000000 104.461052 -206.441010
v -133.000000 103.348618 -204.991257
v -136.000000 103.348618 -204.991257
v -133.000000 102.649315 -203.302994
v -136.000000 102.649315 -203.302994
v -133.000000 201.906250 -203.302994
v -136.000000 201.906250 -203.302994
v -133.000000 201.206955 -204.991257
v -136.000000 201.206955 -204.991257
v -133.000000 200.094528 -206.441010
v -136.000000 200.094528 -206.441010
v -133.000000 198.644775 -207.553436
v -136.000000 198.644775 -207.553436
v -133.000000 196.956512 -208.252731
v -136.000000 196.956512 -208.252731
v -136.000000 201.906250 -175.045578
v -133.000000 201.906250 -175.045578
v -136.000000 201.206955 -173.357315
v -133.000000 201.206955 -173.357315
v -136.000000 200.094528 -171.907562
v -133.000000 200.094528 -171.907562
v -136.000000 198.644775 -170.795135
v -133.000000 198.644775 -170.795135
v -136.000000 196.956512 -170.095840
v -133.000000 196.956512 -170.095840
# 144 vertices

vt 0.16602 0.19653
vt 0.16671 0.59049
vt 0.16596 0.15967
vt 0.16675 0.61132
vt 0.16643 0.93967
vt 0.20191 0.15962
vt 0.20175 0.15962
vt 0.20181 0.19339
vt 0.20197 0.19337
vt 0.20159 0.15962
vt 0.20165 0.19340
vt 0.20143 0.15963
vt 0.20149 0.19341
vt 0.20128 0.15963
vt 0.20133 0.19343
vt 0.20112 0.15963
vt 0.20117 0.19344
vt 0.20096 0.15963
vt 0.20101 0.19346
vt 0.20251 0.59017
vt 0.20267 0.59017
vt 0.20235 0.59017
vt 0.20219 0.59017
vt 0.20204 0.59017
vt 0.20188 0.59017
vt 0.20172 0.59017
vt 0.20254 0.61153
vt 0.20270 0.61153
vt 0.20238 0.61152
vt 0.20223 0.61152
vt 0.20207 0.61152
vt 0.20191 0.61152
vt 0.20175 0.61152
vt 0.20234 0.94009
vt 0.20218 0.94008
vt 0.20202 0.94008
vt 0.20186 0.94008
vt 0.20170 0.94008
vt 0.20155 0.94008
vt 0.20139 0.94007
vt 0.20163 0.94008
vt 0.20186 0.94008
vt 0.20206 0.94008
vt 0.20221 0.94008
vt 0.20231 0.94009
vt 0.20206 0.94008
vt 0.20120 0.15963
vt 0.20163 0.15962
vt 0.20178 0.15962
vt 0.20188 0.15962
vt 0.17042 0.56278
vt 0.17118 0.56739
vt 0.17193 0.57199
vt 0.17268 0.57660
vt 0.17344 0.58120
vt 0.17419 0.58581
vt 0.17494 0.59041
vt 0.19518 0.56242
vt 0.19444 0.56707
vt 0.19370 0.57171
vt 0.19297 0.57635
vt 0.19223 0.58099
vt 0.19149 0.58563
vt 0.19075 0.59027
vt 0.18997 0.19443
vt 0.19071 0.19900
vt 0.19146 0.20357
vt 0.19221 0.20814
vt 0.19295 0.21271
vt 0.19370 0.21728
vt 0.19444 0.22185
vt 0.17443 0.19579
vt 0.17370 0.20047
vt 0.17297 0.20515
vt 0.17224 0.20982
vt 0.17151 0.21450
vt 0.17078 0.21918
vt 0.17004 0.22385
vt 0.19524 0.59023
vt 0.19444 0.56707
vt 0.19370 0.57171
vt 0.19297 0.57635
vt 0.19223 0.58099
vt 0.19149 0.58563
vt 0.19370 0.57171
vt 0.17045 0.59045
vt 0.17193 0.57199
vt 0.17268 0.57660
vt 0.17001 0.19618
vt 0.17297 0.20515
vt 0.17224 0.20982
vt 0.17151 0.21450
vt 0.17078 0.21918
vt 0.17297 0.20515
vt 0.19438 0.19404
vt 0.18997 0.19443
vt 0.19071 0.19900
vt 0.19146 0.20357
vt 0.19295 0.21271
vt 0.19370 0.21728
vt 0.19444 0.22185
vt 0.19295 0.21271
vt 0.19146 0.20357
# 103 texture vertices

vn 0.00000 0.00000 1.00000
vn 0.00000 -0.00000 1.00000
vn 0.00000 0.00000 1.00000
vn 0.00000 0.00000 1.00000
vn -0.13054 0.00000 -0.99144
vn -0.25882 0.00000 -0.96593
vn -0.25882 0.00000 -0.96593
vn -0.50000 0.00000 -0.86602
vn -0.70711 0.00000 -0.70711
vn -0.86602 0.00000 -0.50000
vn -0.86602 0.00000 -0.50000
vn -0.96593 0.00000 -0.25882
vn -0.99786 0.00000 -0.06541
vn -0.99786 0.00000 -0.06541
vn 0.13054 0.00000 -0.99144
vn 0.25882 0.00000 -0.96593
vn 0.25882 0.00000 -0.96593
vn 0.50000 0.00000 -0.86602
vn 0.70711 0.00000 -0.70711
vn 0.86602 0.00000 -0.50000
vn 0.86602 0.00000 -0.50000
vn 0.96593 0.00000 -0.25882
vn 0.99786 0.00000 -0.06541
vn 0.99786 0.00000 -0.06541
vn -0.70711 0.00000 -0.70711
vn 0.70711 0.00000 -0.70711
vn -0.50000 0.00000 -0.86602
vn -0.86602 0.00000 -0.50000
vn 0.50000 0.00000 -0.86602
vn 0.86602 0.00000 -0.50000
vn 0.70711 0.00000 -0.70710
vn 0.96593 0.00000 -0.25881
vn 0.99786 0.00000 -0.06541
vn -0.70711 0.00000 -0.70710
vn -0.96593 0.00000 -0.25881
vn -0.99786 0.00000 -0.06541
vn -1.00000 0.00000 0.00000
vn 1.00000 0.00000 0.00000
vn 0.00000 0.00000 0.00000
vn 0.00000 -1.00000 -0.00000
vn 0.00000 -1.00000 -0.00000
vn -0.00000 1.00000 0.00000
vn -0.00000 1.00000 0.00000
vn 0.00000 0.06540 -0.99786
vn 0.00000 0.25882 -0.96593
vn 0.00000 0.50000 -0.86603
vn 0.00000 0.70711 -0.70711
vn 0.00000 0.86603 -0.50000
vn 0.00000 0.96593 -0.25882
vn 0.00000 0.99786 -0.06540
vn 0.00000 0.06540 0.99786
vn 0.00000 0.25882 0.96593
vn 0.00000 0.50000 0.86603
vn 0.00000 0.70711 0.70711
vn 0.00000 0.86603 0.50000
vn 0.00000 0.96593 0.25882
vn 0.00000 0.99786 0.06540
vn 0.00000 -0.99786 0.06540
vn 0.00000 -0.96593 0.25882
vn 0.00000 -0.86603 0.50000
vn 0.00000 -0.70711 0.70711
vn 0.00000 -0.50000 0.86603
vn 0.00000 -0.25882 0.96593
vn 0.00000 -0.06540 0.99786
vn 0.00000 -0.99786 -0.06540
vn 0.00000 -0.96593 -0.25882
vn 0.00000 -0.86603 -0.50000
vn 0.00000 -0.70711 -0.70711
vn 0.00000 -0.50000 -0.86603
vn 0.00000 -0.25882 -0.96593
vn 0.00000 -0.06540 -0.99786
vn -1.00000 0.00000 0.00000
vn 1.00000 0.00000 0.00000
# 73 normal vertices

g obj7
s 1
usemtl mat1
f 14/1/1 4/2/2 13/2/2
f 14/1/1 5/1/1 4/2/2
f 10/3/3 5/1/1 14/1/1
f 10/3/3 1/3/3 5/1/1
f 13/2/2 2/4/4 11/4/4
f 13/2/2 4/2/2 2/4/4
f 11/4/4 3/5/4 12/5/4
f 11/4/4 2/4/4 3/5/4
f 40/7/6 29/9/5 39/8/7
f 40/7/6 30/6/5 29/9/5
f 42/10/8 39/8/7 41/11/8
f 42/10/8 40/7/6 39/8/7
f 44/12/9 41/11/8 43/13/9
f 44/12/9 42/10/8 41/11/8
f 46/14/10 43/13/9 45/15/11
f 46/14/10 44/12/9 43/13/9
f 48/16/12 45/15/11 47/17/12
f 48/16/12 46/14/10 45/15/11
f 23/18/13 47/17/12 21/19/14
f 23/18/13 48/16/12 47/17/12
f 31/6/15 50/8/16 32/9/15
f 31/6/15 49/7/17 50/8/16
f 49/7/17 52/11/18 50/8/16
f 49/7/17 51/10/18 52/11/18
f 51/10/18 54/13/19 52/11/18
f 51/10/18 53/12/19 54/13/19
f 53/12/19 56/15/20 54/13/19
f 53/12/19 55/14/21 56/15/20
f 55/14/21 58/17/22 56/15/20
f 55/14/21 57/16/22 58/17/22
f 57/16/22 27/19/23 58/17/22
f 57/16/22 28/18/24 27/19/23
f 39/8/7 33/21/5 59/20/7
f 39/8/7 29/9/5 33/21/5
f 41/11/8 59/20/7 60/22/8
f 41/11/8 39/8/7 59/20/7
f 43/13/9 60/22/8 61/23/25
f 43/13/9 41/11/8 60/22/8
f 45/15/11 61/23/25 62/24/10
f 45/15/11 43/13/9 61/23/25
f 47/17/12 62/24/10 63/25/12
f 47/17/12 45/15/11 62/24/10
f 21/19/14 63/25/12 22/26/14
f 21/19/14 47/17/12 63/25/12
f 32/9/15 64/20/16 34/21/15
f 32/9/15 50/8/16 64/20/16
f 50/8/16 65/22/18 64/20/16
f 50/8/16 52/11/18 65/22/18
f 52/11/18 66/23/26 65/22/18
f 52/11/18 54/13/19 66/23/26
f 54/13/19 67/24/21 66/23/26
f 54/13/19 56/15/20 67/24/21
f 56/15/20 68/25/22 67/24/21
f 56/15/20 58/17/22 68/25/22
f 58/17/22 26/26/23 68/25/22
f 58/17/22 27/19/23 26/26/23
f 59/20/7 35/28/5 69/27/6
f 59/20/7 33/21/5 35/28/5
f 60/22/8 69/27/6 70/29/27
f 60/22/8 59/20/7 69/27/6
f 61/23/25 70/29/27 71/30/25
f 61/23/25 60/22/8 70/29/27
f 62/24/10 71/30/25 72/31/28
f 62/24/10 61/23/25 71/30/25
f 63/25/12 72/31/28 73/32/12
f 63/25/12 62/24/10 72/31/28
f 22/26/14 73/32/12 20/33/14
f 22/26/14 63/25/12 73/32/12
f 34/21/15 74/27/17 36/28/15
f 34/21/15 64/20/16 74/27/17
f 64/20/16 75/29/29 74/27/17
f 64/20/16 65/22/18 75/29/29
f 65/22/18 76/30/26 75/29/29
f 65/22/18 66/23/26 76/30/26
f 66/23/26 77/31/30 76/30/26
f 66/23/26 67/24/21 77/31/30
f 67/24/21 78/32/22 77/31/30
f 67/24/21 68/25/22 78/32/22
f 68/25/22 24/33/23 78/32/22
f 68/25/22 26/26/23 24/33/23
f 36/28/15 79/35/17 37/34/15
f 36/28/15 74/27/17 79/35/17
f 74/27/17 80/36/29 79/35/17
f 74/27/17 75/29/29 80/36/29
f 75/29/29 81/37/31 80/36/29
f 75/29/29 76/30/26 81/37/31
f 81/37/31 77/31/30 82/38/20
f 81/37/31 76/30/26 77/31/30
f 77/31/30 83/39/32 82/38/20
f 77/31/30 78/32/22 83/39/32
f 83/39/32 24/33/23 25/40/33
f 83/39/32 78/32/22 24/33/23
f 69/27/6 38/34/5 84/35/6
f 69/27/6 35/28/5 38/34/5
f 70/29/27 84/35/6 85/36/27
f 70/29/27 69/27/6 84/35/6
f 71/30/25 85/36/27 86/37/34
f 71/30/25 70/29/27 85/36/27
f 72/31/28 86/37/34 87/38/11
f 72/31/28 71/30/25 86/37/34
f 73/32/12 87/38/11 88/39/35
f 73/32/12 72/31/28 87/38/11
f 20/33/14 88/39/35 19/40/36
f 20/33/14 73/32/12 88/39/35
f 2/4/37 19/40/36 3/5/37
f 2/4/37 20/33/14 19/40/36
f 25/40/33 11/4/38 12/5/38
f 25/40/33 24/33/23 11/4/38
f 29/9/39 31/6/39 32/9/39
f 29/9/39 30/6/39 31/6/39
f 33/21/39 32/9/39 34/21/39
f 33/21/39 29/9/39 32/9/39
f 35/28/39 34/21/39 36/28/39
f 35/28/39 33/21/39 34/21/39
f 35/28/39 37/34/39 38/34/39
f 35/28/39 36/28/39 37/34/39
f 79/45/40 38/34/39 37/34/39
f 79/45/40 84/45/40 38/34/39
f 79/45/40 85/44/40 84/45/40
f 80/44/40 85/44/40 79/45/40
f 80/44/40 86/46/41 85/44/40
f 81/43/41 86/46/41 80/44/40
f 81/43/41 87/42/40 86/46/41
f 82/42/40 87/42/40 81/43/41
f 82/42/40 88/41/40 87/42/40
f 83/41/40 88/41/40 82/42/40
f 83/41/40 19/40/40 88/41/40
f 25/40/40 19/40/40 83/41/40
f 25/40/40 3/5/40 19/40/40
f 25/40/40 12/5/40 3/5/40
f 40/50/42 31/6/39 30/6/39
f 40/50/42 49/50/42 31/6/39
f 40/50/42 51/49/42 49/50/42
f 42/49/42 51/49/42 40/50/42
f 42/49/42 53/48/43 51/49/42
f 44/48/43 53/48/43 42/49/42
f 44/48/43 55/12/42 53/48/43
f 46/12/42 55/12/42 44/48/43
f 46/12/42 57/47/42 55/12/42
f 48/47/42 57/47/42 46/12/42
f 48/47/42 28/18/42 57/47/42
f 23/18/42 28/18/42 48/47/42
f 23/18/42 10/3/42 28/18/42
f 23/18/42 1/3/42 10/3/42
f 93/51/44 106/52/45 105/52/45
f 93/51/44 94/51/44 106/52/45
f 105/52/45 108/53/46 107/53/46
f 105/52/45 106/52/45 108/53/46
f 107/53/46 110/54/47 109/54/47
f 107/53/46 108/53/46 110/54/47
f 109/54/47 112/55/48 111/55/48
f 109/54/47 110/54/47 112/55/48
f 111/55/48 114/56/49 113/56/49
f 111/55/48 112/55/48 114/56/49
f 113/56/49 91/57/50 92/57/50
f 113/56/49 114/56/49 91/57/50
f 99/58/51 116/59/52 115/59/52
f 99/58/51 100/58/51 116/59/52
f 115/59/52 118/60/53 117/60/53
f 115/59/52 116/59/52 118/60/53
f 117/60/53 120/61/54 119/61/54
f 117/60/53 118/60/53 120/61/54
f 120/61/54 121/62/55 119/61/54
f 120/61/54 122/62/55 121/62/55
f 122/62/55 123/63/56 121/62/55
f 122/62/55 124/63/56 123/63/56
f 124/63/56 90/64/57 123/63/56
f 124/63/56 89/64/57 90/64/57
f 101/65/58 126/66/59 125/66/59
f 101/65/58 102/65/58 126/66/59
f 125/66/59 128/67/60 127/67/60
f 125/66/59 126/66/59 128/67/60
f 127/67/60 130/68/61 129/68/61
f 127/67/60 128/67/60 130/68/61
f 129/68/61 132/69/62 131/69/62
f 129/68/61 130/68/61 132/69/62
f 131/69/62 134/70/63 133/70/63
f 131/69/62 132/69/62 134/70/63
f 133/70/63 97/71/64 98/71/64
f 133/70/63 134/70/63 97/71/64
f 104/72/65 135/73/66 103/72/65
f 104/72/65 136/73/66 135/73/66
f 136/73/66 137/74/67 135/73/66
f 136/73/66 138/74/67 137/74/67
f 138/74/67 139/75/68 137/74/67
f 138/74/67 140/75/68 139/75/68
f 139/75/68 142/76/69 141/76/69
f 139/75/68 140/75/68 142/76/69
f 141/76/69 144/77/70 143/77/70
f 141/76/69 142/76/69 144/77/70
f 143/77/70 95/78/71 96/78/71
f 143/77/70 144/77/70 95/78/71
f 116/80/37 100/58/37 9/79/37
f 9/79/37 118/81/37 116/80/37
f 9/79/37 120/82/72 118/81/37
f 9/79/37 122/83/37 120/82/72
f 9/79/37 124/84/72 122/83/37
f 9/79/37 89/64/72 124/84/72
f 123/84/38 90/64/73 18/79/73
f 121/83/38 123/84/38 18/79/73
f 119/82/73 121/83/38 18/79/73
f 117/85/38 119/82/73 18/79/73
f 115/80/73 117/85/38 18/79/73
f 18/79/73 99/58/38 115/80/73
f 106/52/38 94/51/38 15/86/38
f 15/86/38 108/87/38 106/52/38
f 15/86/38 110/88/73 108/87/38
f 15/86/38 112/55/38 110/88/73
f 15/86/38 114/56/73 112/55/38
f 15/86/38 91/57/73 114/56/73
f 113/56/37 92/57/72 6/86/37
f 111/55/37 113/56/37 6/86/37
f 109/88/72 111/55/37 6/86/37
f 107/87/37 109/88/72 6/86/37
f 105/52/72 107/87/37 6/86/37
f 6/86/37 93/51/37 105/52/72
f 144/93/73 16/89/38 95/78/38
f 142/92/38 16/89/38 144/93/73
f 140/91/38 16/89/38 142/92/38
f 138/90/38 16/89/38 140/91/38
f 136/73/73 16/89/38 138/90/38
f 136/73/73 104/72/38 16/89/38
f 7/89/37 143/93/37 96/78/37
f 7/89/37 141/92/37 143/93/37
f 7/89/37 139/91/37 141/92/37
f 7/89/37 137/94/37 139/91/37
f 7/89/37 135/73/37 137/94/37
f 7/89/37 103/72/37 135/73/37
f 134/100/37 8/95/37 97/101/37
f 132/99/37 8/95/37 134/100/37
f 130/68/37 8/95/37 132/99/37
f 128/98/37 8/95/37 130/68/37
f 126/97/37 8/95/37 128/98/37
f 126/97/37 102/96/37 8/95/37
f 17/95/38 133/100/38 98/101/38
f 17/95/38 131/102/38 133/100/38
f 17/95/38 129/68/38 131/102/38
f 17/95/38 127/103/38 129/68/38
f 17/95/38 125/97/38 127/103/38
f 17/95/38 101/96/38 125/97/38
f 92/57/50 90/64/57 89/64/57
f 92/57/50 91/57/50 90/64/57
f 96/78/71 94/51/44 93/51/44
f 96/78/71 95/78/71 94/51/44
f 98/71/64 100/58/51 99/58/51
f 98/71/64 97/71/64 100/58/51
f 104/72/65 102/65/58 101/65/58
f 104/72/65 103/72/65 102/65/58
f 5/1/37 6/86/37 4/2/72
f 5/1/37 93/51/37 6/86/37
f 5/1/37 96/78/37 93/51/37
f 5/1/37 7/89/37 96/78/37
f 94/51/38 13/2/73 15/86/38
f 94/51/38 14/1/38 13/2/73
f 95/78/38 14/1/38 94/51/38
f 95/78/38 16/89/38 14/1/38
f 100/58/37 22/26/14 9/79/37
f 100/58/37 21/19/14 22/26/14
f 97/71/37 21/19/14 100/58/37
f 97/71/37 8/95/37 21/19/14
f 5/1/37 103/72/37 7/89/37
f 5/1/37 102/65/37 103/72/37
f 5/1/37 8/95/37 102/65/37
f 5/1/37 21/19/14 8/95/37
f 5/1/37 23/18/13 21/19/14
f 5/1/37 1/3/37 23/18/13
f 4/2/72 20/33/14 2/4/37
f 9/79/37 22/26/14 20/33/14
f 89/64/72 9/79/37 20/33/14
f 92/57/72 89/64/72 20/33/14
f 6/86/37 92/57/72 20/33/14
f 20/33/14 4/2/72 6/86/37
f 27/19/23 18/79/73 26/26/23
f 27/19/23 99/58/38 18/79/73
f 27/19/23 98/71/38 99/58/38
f 27/19/23 17/95/38 98/71/38
f 16/89/38 10/3/38 14/1/38
f 28/18/24 17/95/38 27/19/23
f 28/18/24 101/65/38 17/95/38
f 28/18/24 104/72/38 101/65/38
f 28/18/24 16/89/38 104/72/38
f 28/18/24 10/3/38 16/89/38
f 26/26/23 11/4/38 24/33/23
f 15/86/38 13/2/73 11/4/38
f 91/57/73 15/86/38 11/4/38
f 90/64/73 91/57/73 11/4/38
f 18/79/73 90/64/73 11/4/38
f 11/4/38 26/26/23 18/79/73
# 288 elements

